<?xml version="1.0" encoding="UTF-8" standalone="no"?>
<!-- Created with Inkscape (http://www.inkscape.org/) -->

<svg
   width="120"
   height="120"
   viewBox="0 0 31.749999 31.75"
   version="1.1"
   id="svg1"
   xmlns="http://www.w3.org/2000/svg"
   xmlns:svg="http://www.w3.org/2000/svg">
  <defs
     id="defs1" />
  <g
     id="layer1">
    <g
       id="g2"
       transform="translate(1.4373225,-0.86121216)">
      <path
         d="m 3.3652398,11.962868 c -0.4180261,0.388594 -0.8821151,0.905576 -1.2014127,1.338325 -0.089395,0.121163 -0.092673,0.128377 -0.070032,0.154989 0.013061,0.01535 0.1435049,0.135245 0.2898761,0.2664 0.1463712,0.131156 0.2795466,0.251245 0.2959476,0.266863 l 0.029815,0.02839 0.1519963,-0.197876 c 0.2311043,-0.300847 0.4159644,-0.518407 0.6376379,-0.750387 0.1853446,-0.19396 0.5139544,-0.510102 0.5303994,-0.510296 0.019634,-2.24e-4 0.5466656,0.509093 0.6863335,0.663282 0.8926836,0.985497 1.4888994,2.064756 1.7482256,3.164585 0.1621259,0.687591 0.1835862,1.231704 0.071946,1.825013 -0.164887,0.87632 -0.5808421,1.541012 -1.2963692,2.07158 -0.075944,0.05632 -0.2831981,0.19424 -0.4605288,0.306497 L 4.4566723,20.794321 4.4487923,19.33405 C 4.4411723,17.918473 4.4400223,17.8675 4.4099133,17.669197 4.3481011,17.262211 4.2463241,16.914454 4.0938882,16.589375 3.8710508,16.114155 3.6236378,15.791693 3.2104187,15.43798 3.0590873,15.308441 2.9540128,15.2142 2.7272114,15.0046 2.6475914,14.93102 2.5274352,14.820634 2.4602058,14.75931 2.3929858,14.69798 2.1914326,14.514021 2.0123433,14.350493 1.8332548,14.186966 1.6805411,14.053172 1.6729797,14.053172 c -0.033187,0 -0.3199243,0.541931 -0.4955468,0.936562 -0.20337012,0.456982 -0.37600672,1.00309 -0.46717562,1.47778 -0.2215278,1.153412 -0.068406,2.279444 0.43754842,3.217603 0.2977449,0.55209 0.7152535,1.017082 1.2568107,1.399761 0.1625994,0.114897 0.4697116,0.304371 0.49374,0.304609 0.00576,0 0.010546,-0.232381 0.010418,-0.51651 v -0.516595 l -0.064594,-0.0433 C 2.7163212,20.227349 2.5210105,20.057027 2.3585373,19.889578 1.8655265,19.381462 1.5717626,18.73067 1.4720871,17.925775 1.4541725,17.781092 1.450742,17.667537 1.4565442,17.412896 c 0.0094,-0.411036 0.040479,-0.630237 0.1562094,-1.100088 0.073225,-0.297289 0.2618073,-0.83823 0.2964956,-0.850503 0.013137,-0.0047 0.7309768,0.637892 0.9295376,0.832035 0.328337,0.321032 0.5770662,0.761371 0.6864164,1.215185 0.078621,0.326308 0.074022,0.192654 0.079781,2.314084 0.00483,1.774861 0.00745,1.966633 0.027664,1.984386 0.012324,0.01075 0.1081102,0.07469 0.2130025,0.141955 0.1048958,0.06727 0.1925969,0.12256 0.1949186,0.122882 0.020625,0.0028 1.1716491,-0.702429 1.4991679,-0.91859 0.7109413,-0.469218 1.2245736,-1.079665 1.5469856,-1.838487 0.333306,-0.784457 0.439326,-1.71614 0.297317,-2.612855 C 7.1060178,14.946608 6.151758,13.290143 4.6037488,11.876546 4.3706853,11.663721 4.052461,11.399584 4.0291135,11.399584 Z"
         style="fill:#4caf50;fill-opacity:1;stroke-width:0.01443"
         id="path1-4" />
      <text
         xml:space="preserve"
         style="font-style:normal;font-variant:normal;font-weight:normal;font-stretch:normal;font-size:3.31644px;line-height:0.6;font-family:'FONTSPRING DEMO - Organetto';-inkscape-font-specification:'FONTSPRING DEMO - Organetto, Normal';font-variant-ligatures:normal;font-variant-caps:normal;font-variant-numeric:normal;font-variant-east-asian:normal;text-align:start;word-spacing:0.0704746px;writing-mode:lr-tb;direction:ltr;text-anchor:start;fill:#4caf50;fill-opacity:1;stroke:#000000;stroke-width:0;stroke-linejoin:round;stroke-dasharray:none;paint-order:stroke fill markers"
         x="9.4467726"
         y="17.456257"
         id="text1"
         transform="scale(0.99493895,1.0050868)"><tspan
           id="tspan1"
           style="font-style:normal;font-variant:normal;font-weight:bold;font-stretch:normal;font-size:3.31644px;font-family:'FONTSPRING DEMO - Organetto Bold';-inkscape-font-specification:'FONTSPRING DEMO - Organetto Bold,  Bold';font-variant-ligatures:normal;font-variant-caps:normal;font-variant-numeric:normal;font-variant-east-asian:normal;writing-mode:lr-tb;fill:#4caf50;fill-opacity:1;stroke-width:0"
           x="9.4467726"
           y="17.456257">DIET CRAFT</tspan></text>
    </g>
  </g>
</svg>
